<?xml version="1.0" encoding="UTF-8" standalone="no"?>
<!-- Created with Inkscape (http://www.inkscape.org/) -->

<svg
   width="210mm"
   height="210mm"
   viewBox="0 0 210 210"
   version="1.1"
   id="svg152"
   inkscape:version="1.2.2 (b0a84865, 2022-12-01)"
   sodipodi:docname="computer-square.svg"
   xmlns:inkscape="http://www.inkscape.org/namespaces/inkscape"
   xmlns:sodipodi="http://sodipodi.sourceforge.net/DTD/sodipodi-0.dtd"
   xmlns="http://www.w3.org/2000/svg"
   xmlns:svg="http://www.w3.org/2000/svg">
  <sodipodi:namedview
     id="namedview154"
     pagecolor="#ffffff"
     bordercolor="#000000"
     borderopacity="0.25"
     inkscape:showpageshadow="2"
     inkscape:pageopacity="0.0"
     inkscape:pagecheckerboard="0"
     inkscape:deskcolor="#d1d1d1"
     inkscape:document-units="mm"
     showgrid="false"
     inkscape:zoom="0.2102413"
     inkscape:cx="397.16269"
     inkscape:cy="561.25984"
     inkscape:window-width="1309"
     inkscape:window-height="456"
     inkscape:window-x="0"
     inkscape:window-y="314"
     inkscape:window-maximized="0"
     inkscape:current-layer="layer1" />
  <defs
     id="defs149" />
  <g
     inkscape:label="Layer 1"
     inkscape:groupmode="layer"
     id="layer1">
    <path
       d="m 136.46243,75.260889 c 0.5349,0.53742 0.83584,1.265015 0.83584,2.023312 0,0.758298 -0.30092,1.485861 -0.83584,2.023313 L 100.32051,115.419 c -0.716974,0.71885 -1.763054,1.00038 -2.744034,0.73887 -0.98099,-0.26151 -1.748,-1.02667 -2.01194,-2.00698 -0.26395,-0.98031 0.015,-2.027 0.73198,-2.74596 L 132.43042,75.259815 c 0.53742,-0.52552 1.2594,-0.819575 2.01146,-0.819575 0.75138,0 1.47336,0.294039 2.01082,0.819575 z M 74.960626,94.103821 c 0.53992,0.521772 1.26127,0.813313 2.01194,0.813313 0.75068,0 1.47211,-0.291541 2.01195,-0.813313 L 115.11682,57.949094 h -4.6e-4 c 0.71698,-0.71885 0.99664,-1.764973 0.73261,-2.745318 -0.26338,-0.980361 -1.02979,-1.745433 -2.01082,-2.006976 -0.98036,-0.261511 -2.02635,0.02002 -2.7434,0.738245 L 74.960846,90.062544 c -0.53491,0.537421 -0.83585,1.265015 -0.83585,2.023314 0,0.758265 0.30093,1.48586 0.83585,2.022672 z m -4.40442,25.737859 c 0.53992,0.52115 1.26064,0.81269 2.01146,0.81269 0.75013,0 1.47147,-0.29154 2.01082,-0.81269 L 140.86429,53.552678 c 0.72322,-0.718851 1.00789,-1.768017 0.74701,-2.753327 -0.26089,-0.984733 -1.02729,-1.756164 -2.01083,-2.022672 -0.9841,-0.267149 -2.03516,0.01126 -2.75781,0.729485 L 70.555256,115.80157 c -0.53679,0.53617 -0.83897,1.26377 -0.83897,2.02332 0,0.75889 0.30218,1.48648 0.83897,2.02267 z m 38.014194,27.51404 c 10e-4,0.75451 -0.29718,1.47899 -0.82959,2.01387 -0.53178,0.5349 -1.255,0.8371 -2.00953,0.84022 -0.7545,0.003 -1.47962,-0.29341 -2.01643,-0.82395 -0.53617,-0.53116 -0.84022,-1.25313 -0.84522,-2.00762 -0.005,-0.7545 0.28967,-1.48023 0.81895,-2.01834 0.52929,-0.53805 1.25064,-0.84397 2.00522,-0.85086 h 0.0326 c 0.75577,-0.003 1.48149,0.29593 2.01515,0.83021 0.53428,0.53428 0.8327,1.26064 0.82895,2.01642 z m 76.44641,5.54125 c 1.60417,4.6e-4 3.14188,-0.63689 4.2755,-1.77122 1.13301,-1.13426 1.76929,-2.67276 1.76737,-4.27613 v -5.02938 H 20.360166 v 5.03194 c -0.001,1.60289 0.63501,3.1406 1.76866,4.27485 1.13301,1.13364 2.67084,1.77058 4.27438,1.76994 z m -62.31061,16.6151 H 88.718456 V 158.58733 H 122.7062 Z m 9.53086,7.5463 v 3.76058 H 79.185356 v -3.76058 c 0.006,-1.01853 0.82708,-1.84442 1.84505,-1.85755 h 49.363204 c 1.0179,0.0131 1.83929,0.8371 1.84938,1.85499 z M 26.407526,33.22746 c -1.60353,0.002 -3.13995,0.64064 -4.2731,1.774258 -1.13363,1.133011 -1.77169,2.669563 -1.77426,4.272453 V 136.12829 H 191.05968 V 39.274171 c -0.003,-1.60225 -0.64002,-3.138193 -1.77234,-4.271171 -1.13238,-1.13364 -2.66828,-1.7717 -4.27053,-1.77554 z M 185.01649,27.53678 H 26.407526 c -3.11001,0.007 -6.09044,1.24562 -8.28897,3.44474 -2.19901,2.19901 -3.43785,5.178963 -3.44538,8.288968 V 146.85058 c 0.003,3.11128 1.24062,6.09364 3.44025,8.29393 2.19965,2.19965 5.18265,3.43721 8.29394,3.44026 h 56.61528 v 10.92474 h -1.99256 c -2.00009,0.002 -3.9177,0.79768 -5.3316,2.21277 -1.41329,1.41455 -2.20781,3.3328 -2.20846,5.33289 v 6.60535 c -4.5e-4,0.75513 0.29906,1.47961 0.83334,2.01322 0.53365,0.53428 1.25814,0.83396 2.01322,0.83334 h 58.748634 c 0.75512,0 1.47961,-0.29906 2.01322,-0.83334 0.53366,-0.53365 0.83396,-1.25814 0.83333,-2.01322 v -6.60103 c -6.3e-4,-2.00009 -0.79454,-3.9177 -2.20781,-5.33288 -1.41392,-1.41454 -3.33087,-2.21102 -5.33032,-2.21342 h -1.99256 v -10.92474 h 56.61528 c 3.11129,-0.004 6.09364,-1.24125 8.29329,-3.4409 2.19965,-2.19965 3.43722,-5.182 3.4409,-8.29265 V 39.274812 c -0.006,-3.110005 -1.24499,-6.091722 -3.44346,-8.291532 -2.19901,-2.19965 -5.18024,-3.4385 -8.29089,-3.44602 z"
       fill-rule="evenodd"
       id="path21"
       style="stroke-width:0.160161" />
  </g>
</svg>
